<mxfile host="65bd71144e">
    <diagram id="uI0swkpKFQGa_HLW6XGU" name="Page-1">
        <mxGraphModel dx="676" dy="547" grid="1" gridSize="10" guides="1" tooltips="1" connect="1" arrows="1" fold="1" page="1" pageScale="1" pageWidth="850" pageHeight="1100" math="0" shadow="0">
            <root>
                <mxCell id="0"/>
                <mxCell id="1" parent="0"/>
                <mxCell id="3" style="edgeStyle=none;html=1;entryX=0;entryY=0.25;entryDx=0;entryDy=0;exitX=1;exitY=0.25;exitDx=0;exitDy=0;" parent="1" source="2" target="6" edge="1">
                    <mxGeometry relative="1" as="geometry">
                        <mxPoint x="590" y="135" as="targetPoint"/>
                    </mxGeometry>
                </mxCell>
                <mxCell id="5" value="&lt;font style=&quot;font-size: 18px;&quot;&gt;1.visit api.test.com&lt;/font&gt;" style="edgeLabel;html=1;align=center;verticalAlign=middle;resizable=0;points=[];" parent="3" vertex="1" connectable="0">
                    <mxGeometry x="-0.0364" y="-4" relative="1" as="geometry">
                        <mxPoint y="1" as="offset"/>
                    </mxGeometry>
                </mxCell>
                <mxCell id="14" value="&lt;div style=&quot;text-align: justify;&quot;&gt;HTTP Request&lt;/div&gt;&lt;div style=&quot;text-align: justify;&quot;&gt;base on IP&lt;/div&gt;" style="edgeStyle=none;html=1;entryX=0.25;entryY=0;entryDx=0;entryDy=0;fontSize=18;exitX=0.25;exitY=1;exitDx=0;exitDy=0;align=right;" parent="1" source="2" target="13" edge="1">
                    <mxGeometry relative="1" as="geometry"/>
                </mxCell>
                <mxCell id="2" value="&lt;font style=&quot;font-size: 18px;&quot;&gt;User&amp;nbsp; visit a website&lt;/font&gt;" style="rounded=1;whiteSpace=wrap;html=1;strokeWidth=1;" parent="1" vertex="1">
                    <mxGeometry x="170" y="110" width="140" height="100" as="geometry"/>
                </mxCell>
                <mxCell id="7" value="2. return IP 15.125.23.214" style="edgeStyle=none;html=1;entryX=1;entryY=0.75;entryDx=0;entryDy=0;fontSize=18;exitX=0;exitY=0.75;exitDx=0;exitDy=0;" parent="1" source="6" target="2" edge="1">
                    <mxGeometry relative="1" as="geometry"/>
                </mxCell>
                <mxCell id="6" value="&lt;font style=&quot;font-size: 18px;&quot;&gt;DNS&amp;nbsp;&lt;/font&gt;" style="rounded=1;whiteSpace=wrap;html=1;strokeWidth=1;" parent="1" vertex="1">
                    <mxGeometry x="590" y="110" width="130" height="100" as="geometry"/>
                </mxCell>
                <mxCell id="15" style="edgeStyle=none;html=1;entryX=0.75;entryY=1;entryDx=0;entryDy=0;fontSize=18;exitX=0.75;exitY=0;exitDx=0;exitDy=0;" parent="1" source="13" target="2" edge="1">
                    <mxGeometry relative="1" as="geometry"/>
                </mxCell>
                <mxCell id="16" value="&lt;div style=&quot;text-align: justify;&quot;&gt;Server returns&lt;/div&gt;&lt;div style=&quot;text-align: justify;&quot;&gt;HTML or JSON&amp;nbsp;&lt;/div&gt;" style="edgeLabel;html=1;align=left;verticalAlign=middle;resizable=0;points=[];fontSize=18;" parent="15" vertex="1" connectable="0">
                    <mxGeometry x="0.0632" y="2" relative="1" as="geometry">
                        <mxPoint as="offset"/>
                    </mxGeometry>
                </mxCell>
                <mxCell id="18" style="edgeStyle=none;html=1;entryX=0;entryY=0.25;entryDx=0;entryDy=0;exitX=1;exitY=0.25;exitDx=0;exitDy=0;" edge="1" parent="1" source="13" target="17">
                    <mxGeometry relative="1" as="geometry"/>
                </mxCell>
                <mxCell id="19" value="&lt;font style=&quot;font-size: 18px;&quot;&gt;Read/Write/Update&lt;/font&gt;" style="edgeLabel;html=1;align=center;verticalAlign=middle;resizable=0;points=[];" vertex="1" connectable="0" parent="18">
                    <mxGeometry x="-0.0691" y="2" relative="1" as="geometry">
                        <mxPoint as="offset"/>
                    </mxGeometry>
                </mxCell>
                <mxCell id="13" value="&lt;font style=&quot;font-size: 18px;&quot;&gt;Web server&lt;/font&gt;" style="rounded=1;whiteSpace=wrap;html=1;strokeWidth=1;" parent="1" vertex="1">
                    <mxGeometry x="170" y="400" width="140" height="100" as="geometry"/>
                </mxCell>
                <mxCell id="20" value="Return data" style="edgeStyle=none;html=1;entryX=1;entryY=0.75;entryDx=0;entryDy=0;fontSize=18;exitX=0;exitY=0.75;exitDx=0;exitDy=0;" edge="1" parent="1" source="17" target="13">
                    <mxGeometry relative="1" as="geometry"/>
                </mxCell>
                <mxCell id="17" value="&lt;font style=&quot;font-size: 18px;&quot;&gt;Web server&lt;/font&gt;" style="rounded=1;whiteSpace=wrap;html=1;strokeWidth=1;" vertex="1" parent="1">
                    <mxGeometry x="585" y="400" width="140" height="100" as="geometry"/>
                </mxCell>
            </root>
        </mxGraphModel>
    </diagram>
</mxfile>